<svg width="679" height="605" viewBox="0 0 679 605" fill="none" xmlns="http://www.w3.org/2000/svg">
<path d="M389.36 223.583C464.001 268.37 527.139 316.246 568.881 357.429C589.759 378.026 605.243 396.909 614.149 412.86C623.097 428.888 625.22 441.61 620.081 450.175C614.941 458.74 602.716 462.854 584.364 462.5C566.098 462.147 542.15 457.37 514.152 448.64C458.171 431.186 386.217 398.003 311.576 353.217C236.935 308.43 173.797 260.553 132.054 219.37C111.177 198.773 95.6928 179.891 86.7868 163.939C77.8383 147.912 75.7157 135.189 80.855 126.624C85.9943 118.059 98.2192 113.946 116.572 114.3C134.838 114.652 158.785 119.43 186.783 128.159C242.764 145.614 314.719 178.796 389.36 223.583Z" stroke="#2F53FF" stroke-width="2"/>
<path d="M57.1147 154.069L48.5545 161.819L59.546 165.357L57.1147 154.069ZM597.198 478.134C592.059 486.699 579.834 490.813 561.481 490.459C543.215 490.106 519.268 485.329 491.269 476.599C435.289 459.145 363.334 425.962 288.693 381.176L287.664 382.891C362.4 427.734 434.502 460.995 490.674 478.509C518.753 487.263 542.906 492.101 561.442 492.459C579.892 492.815 593.17 488.734 598.913 479.163L597.198 478.134ZM288.693 381.176C219.284 339.528 159.819 295.207 118.256 256.08C97.4718 236.514 81.1895 218.27 70.378 202.33C59.5341 186.342 54.3189 172.851 55.3517 162.737L53.362 162.534C52.2533 173.393 57.8313 187.394 68.7228 203.453C79.6466 219.558 96.0418 237.914 116.885 257.536C158.576 296.784 218.163 341.188 287.664 382.891L288.693 381.176Z" fill="#2F53FF"/>
<path d="M240.402 263.054L382.934 245.61L423.419 377.195" stroke="#2F53FF" stroke-width="2" stroke-linejoin="bevel"/>
<path d="M292.892 240.375L421.985 312.351" stroke="#2F53FF" stroke-width="2" stroke-linejoin="bevel"/>
<path d="M262.073 240.896L441.37 340.863" stroke="#2F53FF" stroke-width="2" stroke-linejoin="bevel"/>
</svg>
