<svg width="667" height="628" viewBox="0 0 667 628" fill="none" xmlns="http://www.w3.org/2000/svg">
<path d="M305.784 235.946C233.437 260.761 170.296 290.411 126.698 318.272C104.892 332.206 88.024 345.662 77.3349 357.806C66.5887 370.014 62.3403 380.599 65.0316 388.925C67.7229 397.251 77.283 403.1 92.989 406.235C108.612 409.355 129.943 409.708 155.506 407.396C206.614 402.772 274.407 387.513 346.755 362.698C419.102 337.883 482.243 308.232 525.841 280.372C547.647 266.438 564.515 252.982 575.204 240.838C585.95 228.629 590.199 218.044 587.507 209.718C584.816 201.392 575.256 195.544 559.55 192.408C543.927 189.289 522.596 188.935 497.033 191.248C445.925 195.872 378.132 211.131 305.784 235.946Z" stroke="#2F53FF" stroke-width="2"/>
<path d="M602.51 237.926L608.823 247.531L597.358 248.374L602.51 237.926ZM79.0882 417.457C81.7795 425.783 91.3397 431.632 107.046 434.767C122.668 437.886 144 438.24 169.562 435.927C220.671 431.304 288.464 416.044 360.811 391.23L361.427 393.133C288.974 417.984 221.02 433.288 169.712 437.93C144.065 440.25 122.52 439.912 106.633 436.74C90.8297 433.585 80.2469 427.543 77.1964 418.106L79.0882 417.457ZM360.811 391.23C427.437 368.377 486.259 341.422 529.199 315.54C550.672 302.597 568.146 289.939 580.634 278.216C593.16 266.457 600.523 255.773 602.053 246.797L604.013 247.111C602.365 256.783 594.568 267.86 581.976 279.68C569.346 291.537 551.742 304.278 530.2 317.263C487.111 343.235 428.154 370.245 361.427 393.133L360.811 391.23Z" fill="#2F53FF"/>
<path d="M425.033 298.006L306.934 256.135L246.78 362.606" stroke="#2F53FF" stroke-width="2" stroke-linejoin="bevel"/>
<path d="M384.705 268.495L260.635 306.664" stroke="#2F53FF" stroke-width="2" stroke-linejoin="bevel"/>
<path d="M410.877 274.73L238.558 327.742" stroke="#2F53FF" stroke-width="2" stroke-linejoin="bevel"/>
</svg>
