<svg width="170" height="33" viewBox="0 0 170 33" fill="none" xmlns="http://www.w3.org/2000/svg">
<g clip-path="url(#clip0_1_4)">
<path d="M10.1318 15.9296C10.0939 16.5479 10.3196 17.1549 10.7592 17.6174C11.1988 18.0799 11.8165 18.36 12.4764 18.3961H12.6124C13.0985 18.3956 13.5737 18.2618 13.9795 18.0112C14.3853 17.7606 14.7039 17.4042 14.896 16.9859C15.088 16.5677 15.1451 16.1059 15.0603 15.6575C14.9754 15.2092 14.7523 14.794 14.4184 14.4631C14.0845 14.1322 13.6545 13.9001 13.1815 13.7955C12.7085 13.6909 12.2131 13.7183 11.7565 13.8744C11.2999 14.0305 10.9021 14.3085 10.6122 14.6739C10.3222 15.0393 10.1529 15.4763 10.125 15.9309L10.1318 15.9296Z" fill="white"/>
<path d="M0.850507 15.3383C0.691838 15.33 0.534098 15.3659 0.397221 15.4416C0.260344 15.5172 0.150474 15.6292 0.0814954 15.7633C0.0125167 15.8974 -0.0124742 16.0477 0.00968094 16.1951C0.031836 16.3425 0.100143 16.4805 0.205969 16.5915C0.311795 16.7026 0.45039 16.7818 0.604239 16.8191C0.758088 16.8564 0.920286 16.8501 1.07034 16.8011C1.22038 16.752 1.35155 16.6624 1.44725 16.5436C1.54296 16.4247 1.5989 16.282 1.60803 16.1333C1.61427 16.0345 1.59961 15.9355 1.56488 15.8419C1.53014 15.7484 1.47603 15.6622 1.40564 15.5884C1.33525 15.5145 1.24997 15.4544 1.1547 15.4115C1.05943 15.3685 0.956056 15.3437 0.850507 15.3383Z" fill="white"/>
<path d="M9.97369 2.39807C10.115 2.33008 10.2317 2.22446 10.3091 2.09448C10.3864 1.96451 10.421 1.81599 10.4085 1.66764C10.396 1.51928 10.3369 1.37772 10.2387 1.26076C10.1404 1.1438 10.0075 1.05668 9.85648 1.01036C9.70551 0.964043 9.54329 0.9606 9.39023 1.00046C9.23718 1.04033 9.10013 1.12172 8.99635 1.23439C8.89257 1.34706 8.82668 1.48597 8.80699 1.63364C8.7873 1.78132 8.81468 1.93114 8.88569 2.06427C8.93343 2.15337 8.99951 2.23275 9.08015 2.29782C9.16078 2.36289 9.25436 2.41236 9.3555 2.44339C9.45664 2.47442 9.56333 2.48639 9.66943 2.47861C9.77553 2.47083 9.87894 2.44346 9.97369 2.39807Z" fill="white"/>
<path d="M12.4982 6.52349C12.7177 6.41978 12.8994 6.25744 13.0204 6.05699C13.1414 5.85655 13.1962 5.62699 13.178 5.39735C13.1597 5.16772 13.0692 4.9483 12.9178 4.76685C12.7665 4.58539 12.5611 4.45005 12.3277 4.37793C12.0942 4.3058 11.8432 4.30014 11.6063 4.36164C11.3695 4.42315 11.1574 4.54907 10.9969 4.72348C10.8364 4.8979 10.7347 5.11297 10.7046 5.34152C10.6746 5.57007 10.7176 5.80183 10.8281 6.0075C10.9016 6.14415 11.003 6.2659 11.1267 6.36579C11.2504 6.46569 11.3939 6.54177 11.549 6.58969C11.7041 6.6376 11.8678 6.65642 12.0306 6.64506C12.1935 6.6337 12.3524 6.59239 12.4982 6.52349Z" fill="white"/>
<path d="M4.00047 9.36077C4.16975 9.46505 4.36825 9.51996 4.57085 9.51853C4.77345 9.5171 4.97104 9.45941 5.13863 9.35275C5.30622 9.24609 5.43627 9.09526 5.51233 8.91934C5.58839 8.74343 5.60703 8.55033 5.56591 8.36448C5.52478 8.17863 5.42574 8.00838 5.2813 7.87528C5.13686 7.74218 4.95353 7.65221 4.75449 7.61675C4.55545 7.58129 4.34966 7.60193 4.16315 7.67606C3.97664 7.7502 3.81779 7.87449 3.70671 8.03322C3.55793 8.24581 3.50531 8.50502 3.56038 8.75393C3.61546 9.00284 3.77374 9.2211 4.00047 9.36077Z" fill="white"/>
<path d="M5.51424 14.9142C5.26884 14.9012 5.02484 14.9567 4.81308 15.0736C4.60133 15.1905 4.43132 15.3636 4.32456 15.571C4.2178 15.7784 4.17906 16.0108 4.21326 16.2388C4.24746 16.4669 4.35305 16.6803 4.51669 16.8521C4.68033 17.0239 4.89467 17.1464 5.13262 17.2041C5.37056 17.2618 5.62144 17.2522 5.85352 17.1764C6.08561 17.1005 6.28849 16.962 6.43653 16.7781C6.58456 16.5943 6.6711 16.3735 6.6852 16.1437C6.70377 15.8352 6.59087 15.5325 6.37131 15.3019C6.15175 15.0714 5.84349 14.9319 5.51424 14.9142Z" fill="white"/>
<path d="M4.13638 22.743C3.95564 22.8286 3.80605 22.9624 3.7065 23.1276C3.60695 23.2928 3.56192 23.482 3.5771 23.6712C3.59228 23.8603 3.66699 24.041 3.79178 24.1904C3.91657 24.3398 4.08585 24.4512 4.27821 24.5105C4.47057 24.5698 4.67737 24.5744 4.87248 24.5236C5.0676 24.4728 5.24225 24.3689 5.37438 24.2252C5.5065 24.0814 5.59016 23.9042 5.61478 23.7159C5.6394 23.5276 5.60388 23.3367 5.5127 23.1673C5.45211 23.0547 5.36844 22.9545 5.26646 22.8722C5.16449 22.79 5.04621 22.7274 4.91839 22.688C4.79057 22.6486 4.65572 22.6331 4.52153 22.6426C4.38735 22.652 4.25647 22.6862 4.13638 22.743Z" fill="white"/>
<path d="M8.96841 12.5074C9.21047 12.656 9.49413 12.7341 9.78352 12.7317C10.0729 12.7293 10.3551 12.6465 10.5943 12.4939C10.8335 12.3413 11.019 12.1257 11.1274 11.8743C11.2358 11.6229 11.2622 11.3471 11.2032 11.0816C11.1443 10.8162 11.0026 10.5731 10.7962 10.3831C10.5898 10.193 10.3278 10.0646 10.0435 10.0141C9.75918 9.96348 9.46523 9.99302 9.19882 10.0989C8.93241 10.2049 8.70551 10.3824 8.54681 10.6091C8.44123 10.7596 8.36838 10.9282 8.33243 11.1051C8.29648 11.282 8.29813 11.4639 8.33729 11.6402C8.37645 11.8165 8.45235 11.9839 8.56065 12.1327C8.66895 12.2815 8.80751 12.4089 8.96841 12.5074Z" fill="white"/>
<path d="M24.2994 6.43168C24.5055 6.55762 24.7469 6.62349 24.9929 6.62097C25.239 6.61845 25.4787 6.54764 25.6818 6.41751C25.8849 6.28737 26.0423 6.10375 26.134 5.88985C26.2257 5.67595 26.2477 5.44137 26.1972 5.21578C26.1466 4.99018 26.0258 4.78369 25.85 4.6224C25.6742 4.46112 25.4513 4.35229 25.2094 4.30966C24.9676 4.26703 24.7177 4.29252 24.4914 4.38291C24.265 4.4733 24.0723 4.62453 23.9377 4.81748C23.848 4.94565 23.7863 5.08913 23.7559 5.2397C23.7256 5.39027 23.7273 5.54497 23.7609 5.69493C23.7945 5.84488 23.8594 5.98716 23.9518 6.11358C24.0442 6.24001 24.1623 6.34811 24.2994 6.43168Z" fill="white"/>
<path d="M26.8501 2.31911C26.9833 2.40091 27.1394 2.44385 27.2987 2.44251C27.458 2.44117 27.6132 2.3956 27.7449 2.31157C27.8765 2.22754 27.9785 2.10882 28.0381 1.97044C28.0977 1.83205 28.1121 1.68023 28.0796 1.53416C28.047 1.38809 27.9689 1.25436 27.8552 1.14987C27.7415 1.04538 27.5973 0.974839 27.4408 0.947166C27.2842 0.919494 27.1225 0.935935 26.9759 0.99441C26.8294 1.05289 26.7047 1.15077 26.6175 1.27567C26.5008 1.44297 26.4597 1.64682 26.5033 1.84247C26.5469 2.03811 26.6716 2.20954 26.8501 2.31911Z" fill="white"/>
<path d="M24.4936 13.7101C24.1672 13.6926 23.8404 13.7354 23.5316 13.8362C23.2229 13.937 22.9384 14.0937 22.6944 14.2975C22.2015 14.709 21.9033 15.2872 21.8654 15.9047C21.8276 16.5222 22.0531 17.1285 22.4924 17.5902C22.9317 18.0519 23.5489 18.3313 24.208 18.3667C24.2556 18.3667 24.3046 18.3667 24.3522 18.3667C24.8324 18.3665 25.3022 18.2362 25.7051 17.9914C26.108 17.7467 26.4267 17.398 26.6228 16.9873C26.8189 16.5767 26.884 16.1217 26.8103 15.6772C26.7365 15.2327 26.5271 14.8177 26.2072 14.4822C25.9906 14.2534 25.7275 14.0673 25.4333 13.9347C25.1391 13.8022 24.8197 13.7258 24.4936 13.7101Z" fill="white"/>
<path d="M13.3164 12.3458C13.523 12.7324 13.8408 13.0574 14.2339 13.2841C14.627 13.5107 15.0798 13.6301 15.5414 13.6287C15.9669 13.6288 16.3854 13.5267 16.7569 13.3322C17.1284 13.1377 17.4404 12.8573 17.6633 12.5176C17.8862 12.178 18.0124 11.7905 18.03 11.3922C18.0475 10.9939 17.9558 10.598 17.7636 10.2423C17.5556 9.85741 17.2372 9.53435 16.8443 9.30933C16.4513 9.08432 15.9992 8.96623 15.5387 8.96829C15.1144 8.96897 14.6974 9.07117 14.3271 9.26522C13.9569 9.45926 13.6457 9.7387 13.4231 10.077C13.2005 10.4154 13.0738 10.8014 13.0551 11.1984C13.0365 11.5955 13.1264 11.9904 13.3164 12.3458Z" fill="white"/>
<path d="M32.8331 9.35806C33.0139 9.2726 33.1636 9.13886 33.2632 8.97375C33.3629 8.80863 33.408 8.61954 33.393 8.43038C33.378 8.24123 33.3034 8.06049 33.1788 7.91101C33.0541 7.76153 32.885 7.65002 32.6927 7.59057C32.5004 7.53112 32.2936 7.5264 32.0985 7.57701C31.9034 7.62762 31.7286 7.73129 31.5964 7.8749C31.4641 8.01852 31.3802 8.19565 31.3554 8.38389C31.3306 8.57214 31.3658 8.76306 31.4568 8.93253C31.5792 9.15983 31.7929 9.33231 32.051 9.4121C32.309 9.49189 32.5903 9.47245 32.8331 9.35806Z" fill="white"/>
<path d="M26.52 10.1008C26.2615 10.2228 26.0474 10.4138 25.9048 10.6497C25.7622 10.8857 25.6975 11.1559 25.7188 11.4263C25.7402 11.6967 25.8467 11.9551 26.0248 12.1688C26.2029 12.3825 26.4447 12.5419 26.7195 12.6269C26.9943 12.7119 27.2899 12.7187 27.5688 12.6463C27.8478 12.5739 28.0975 12.4257 28.2865 12.2203C28.4755 12.015 28.5952 11.7618 28.6306 11.4927C28.666 11.2236 28.6154 10.9507 28.4852 10.7085C28.3989 10.5476 28.2795 10.4042 28.134 10.2866C27.9885 10.1689 27.8196 10.0793 27.6371 10.0229C27.4546 9.96644 27.2619 9.94427 27.0703 9.95764C26.8786 9.97101 26.6916 10.0197 26.52 10.1008Z" fill="white"/>
<path d="M18.3916 1.96744C18.5939 1.97823 18.795 1.93259 18.9696 1.83628C19.1441 1.73997 19.2843 1.59733 19.3723 1.4264C19.4603 1.25547 19.4922 1.06393 19.464 0.876004C19.4357 0.68808 19.3487 0.512218 19.2137 0.370665C19.0788 0.229112 18.9021 0.128227 18.7059 0.0807716C18.5098 0.0333165 18.303 0.0414234 18.1118 0.104067C17.9206 0.16671 17.7535 0.281076 17.6317 0.432696C17.5098 0.584317 17.4388 0.76638 17.4274 0.955856C17.4122 1.20976 17.5052 1.45894 17.686 1.64862C17.8668 1.83831 18.1206 1.95298 18.3916 1.96744Z" fill="white"/>
<path d="M18.3794 8.00496C18.6683 8.02013 18.9555 7.95474 19.2047 7.81704C19.454 7.67934 19.654 7.47552 19.7796 7.23134C19.9052 6.98716 19.9507 6.71358 19.9104 6.44517C19.8701 6.17677 19.7457 5.92558 19.553 5.72337C19.3604 5.52116 19.108 5.37699 18.8279 5.30909C18.5478 5.24119 18.2525 5.25261 17.9793 5.34189C17.7061 5.43118 17.4673 5.59433 17.2931 5.81073C17.1188 6.02712 17.017 6.28705 17.0004 6.55765C16.9785 6.92087 17.1114 7.27737 17.37 7.54877C17.6286 7.82017 17.9917 7.98426 18.3794 8.00496Z" fill="white"/>
<path d="M10.4503 21.999C10.7087 21.8769 10.9227 21.6858 11.0652 21.4498C11.2077 21.2138 11.2723 20.9435 11.2508 20.673C11.2293 20.4026 11.1227 20.1443 10.9444 19.9307C10.7661 19.717 10.5243 19.5577 10.2493 19.4729C9.97441 19.388 9.67881 19.3815 9.39992 19.454C9.12102 19.5266 8.87136 19.675 8.68251 19.8805C8.49365 20.086 8.3741 20.3393 8.33895 20.6085C8.30381 20.8776 8.35466 21.1505 8.48507 21.3926C8.65989 21.7171 8.96512 21.9632 9.33364 22.077C9.70216 22.1907 10.1038 22.1626 10.4503 21.999Z" fill="white"/>
<path d="M19.3251 10.0053C19.0216 10.4392 18.8812 10.9555 18.9262 11.4725C18.9712 11.9896 19.1989 12.4778 19.5734 12.8599C19.9479 13.242 20.4478 13.4963 20.9939 13.5823C21.5399 13.6684 22.1011 13.5814 22.5884 13.3351C23.0758 13.0888 23.4615 12.6973 23.6846 12.2225C23.9077 11.7477 23.9554 11.2168 23.8202 10.7137C23.685 10.2107 23.3745 9.76428 22.938 9.44513C22.5014 9.12598 21.9637 8.95233 21.41 8.95166C20.9964 8.95139 20.5893 9.04756 20.2253 9.23151C19.8613 9.41545 19.552 9.68137 19.3251 10.0053Z" fill="white"/>
<path d="M23.6524 19.7556C23.453 19.3851 23.1517 19.0713 22.7796 18.8463C22.4076 18.6214 21.9781 18.4936 21.5357 18.476C21.0932 18.4584 20.6538 18.5517 20.2627 18.7463C19.8716 18.9409 19.543 19.2298 19.3109 19.583C19.0787 19.9363 18.9514 20.3412 18.942 20.7559C18.9326 21.1707 19.0415 21.5803 19.2575 21.9425C19.4734 22.3046 19.7887 22.6062 20.1706 22.8162C20.5525 23.0262 20.9874 23.1369 21.4302 23.1369C21.8198 23.1343 22.2034 23.0471 22.5508 22.882C23.1385 22.6034 23.5844 22.1179 23.7909 21.5319C23.9973 20.946 23.9476 20.3072 23.6524 19.7556Z" fill="white"/>
<path d="M28.0008 19.5925C27.7589 19.4438 27.4752 19.3655 27.1858 19.3677C26.8964 19.3699 26.6142 19.4525 26.3749 19.6049C26.1355 19.7574 25.9498 19.9729 25.8413 20.2243C25.7327 20.4756 25.7061 20.7514 25.7649 21.0169C25.8236 21.2824 25.9651 21.5256 26.1714 21.7157C26.3777 21.9059 26.6396 22.0345 26.9239 22.0852C27.2082 22.1359 27.5022 22.1065 27.7687 22.0007C28.0352 21.895 28.2622 21.7175 28.421 21.4909C28.6333 21.1867 28.7083 20.8162 28.6295 20.4604C28.5507 20.1046 28.3247 19.7925 28.0008 19.5925Z" fill="white"/>
<path d="M32.7673 16.0902C32.7812 15.8603 32.7219 15.6317 32.5971 15.4333C32.4723 15.235 32.2876 15.0757 32.0662 14.9757C31.8448 14.8757 31.5967 14.8394 31.3533 14.8714C31.1099 14.9035 30.8821 15.0024 30.6987 15.1557C30.5153 15.309 30.3845 15.5098 30.3229 15.7327C30.2613 15.9556 30.2716 16.1906 30.3525 16.408C30.4335 16.6254 30.5814 16.8155 30.7776 16.9542C30.9738 17.0928 31.2095 17.1739 31.4549 17.1871C31.7842 17.2045 32.1073 17.0988 32.3534 16.8931C32.5995 16.6874 32.7484 16.3986 32.7673 16.0902Z" fill="white"/>
<path d="M36.2108 15.2608C36.0518 15.2522 35.8937 15.288 35.7564 15.3636C35.6191 15.4392 35.5089 15.5513 35.4396 15.6856C35.3703 15.8199 35.3451 15.9704 35.3671 16.1182C35.3892 16.2659 35.4575 16.4042 35.5634 16.5156C35.6694 16.6269 35.8082 16.7064 35.9623 16.7438C36.1165 16.7813 36.279 16.7751 36.4294 16.726C36.5798 16.6769 36.7112 16.5872 36.8071 16.4681C36.9031 16.349 36.9591 16.206 36.9683 16.057C36.9802 15.8574 36.9071 15.6615 36.7651 15.5123C36.6232 15.363 36.4238 15.2726 36.2108 15.2608Z" fill="white"/>
<path d="M32.968 22.7393C32.7986 22.6354 32.6001 22.5808 32.3976 22.5826C32.1951 22.5843 31.9977 22.6422 31.8303 22.749C31.663 22.8558 31.5332 23.0067 31.4573 23.1826C31.3815 23.3585 31.363 23.5515 31.4043 23.7373C31.4455 23.923 31.5446 24.0931 31.6891 24.2261C31.8335 24.3591 32.0168 24.4489 32.2157 24.4844C32.4147 24.5198 32.6204 24.4991 32.8068 24.4251C32.9932 24.351 33.152 24.2268 33.2631 24.0682C33.3369 23.9628 33.3879 23.8448 33.413 23.721C33.4381 23.5971 33.4369 23.4699 33.4095 23.3465C33.3821 23.2231 33.329 23.1059 33.2532 23.0017C33.1775 22.8976 33.0806 22.8084 32.968 22.7393Z" fill="white"/>
<path d="M10.12 29.7809C9.98688 29.699 9.83085 29.656 9.67163 29.6573C9.51242 29.6585 9.35717 29.7039 9.22551 29.7878C9.09386 29.8717 8.9917 29.9902 8.93197 30.1285C8.87224 30.2668 8.85761 30.4185 8.88993 30.5646C8.92225 30.7106 9.00008 30.8444 9.11356 30.949C9.22704 31.0536 9.37109 31.1244 9.52749 31.1523C9.68389 31.1803 9.84563 31.1641 9.99224 31.106C10.1389 31.0478 10.2638 30.9502 10.3512 30.8256C10.4093 30.7428 10.4494 30.65 10.4692 30.5527C10.489 30.4554 10.4881 30.3554 10.4666 30.2583C10.4452 30.1613 10.4035 30.0692 10.344 29.9873C10.2846 29.9054 10.2084 29.8352 10.12 29.7809Z" fill="white"/>
<path d="M26.9956 29.702C26.8534 29.7691 26.7356 29.8743 26.6572 30.0041C26.5788 30.134 26.5433 30.2827 26.5551 30.4315C26.5669 30.5802 26.6255 30.7224 26.7236 30.8399C26.8217 30.9575 26.9547 31.0452 27.106 31.0918C27.2572 31.1385 27.4199 31.1422 27.5733 31.1023C27.7268 31.0624 27.8641 30.9807 27.968 30.8677C28.072 30.7547 28.1378 30.6153 28.1571 30.4672C28.1765 30.3191 28.1485 30.169 28.0768 30.0358C28.0293 29.9473 27.9637 29.8684 27.8836 29.8037C27.8035 29.739 27.7106 29.6897 27.6102 29.6587C27.5097 29.6277 27.4037 29.6155 27.2983 29.623C27.1928 29.6304 27.09 29.6573 26.9956 29.702Z" fill="white"/>
<path d="M17.6428 22.0908C17.9463 21.6569 18.0867 21.1405 18.0416 20.6234C17.9966 20.1063 17.7688 19.618 17.3942 19.2359C17.0196 18.8538 16.5196 18.5997 15.9735 18.5137C15.4273 18.4277 14.8662 18.5148 14.3788 18.7613C13.8915 19.0077 13.5058 19.3994 13.2829 19.8743C13.0599 20.3492 13.0124 20.8802 13.1479 21.3833C13.2834 21.8863 13.5941 22.3327 14.0308 22.6516C14.4676 22.9706 15.0054 23.144 15.5592 23.1444C15.9728 23.1457 16.3802 23.05 16.7441 22.866C17.1081 22.6819 17.417 22.4154 17.6428 22.0908Z" fill="white"/>
<path d="M12.6716 25.6697C12.4659 25.5437 12.2249 25.4776 11.9791 25.4798C11.7334 25.482 11.4938 25.5524 11.2907 25.6822C11.0877 25.8119 10.9302 25.9951 10.8383 26.2087C10.7463 26.4222 10.724 26.6565 10.7742 26.8819C10.8244 27.1073 10.9448 27.3137 11.1202 27.4751C11.2956 27.6364 11.5181 27.7454 11.7595 27.7883C12.001 27.8312 12.2507 27.806 12.4769 27.716C12.7032 27.626 12.8959 27.4752 13.0306 27.2827C13.2111 27.0241 13.2747 26.709 13.2074 26.4066C13.1401 26.1042 12.9474 25.8391 12.6716 25.6697Z" fill="white"/>
<path d="M18.4727 30.1327C18.2705 30.1219 18.0695 30.1675 17.895 30.2638C17.7205 30.36 17.5803 30.5026 17.4923 30.6735C17.4043 30.8443 17.3723 31.0358 17.4004 31.2237C17.4285 31.4115 17.5155 31.5874 17.6503 31.729C17.7851 31.8706 17.9617 31.9715 18.1577 32.0191C18.3537 32.0667 18.5605 32.0588 18.7517 31.9963C18.9429 31.9339 19.1101 31.8197 19.2321 31.6683C19.354 31.5168 19.4254 31.3349 19.437 31.1455C19.4447 31.0197 19.4259 30.8937 19.3816 30.7747C19.3373 30.6557 19.2684 30.546 19.1789 30.4519C19.0893 30.3579 18.9809 30.2813 18.8597 30.2265C18.7386 30.1717 18.6071 30.1398 18.4727 30.1327Z" fill="white"/>
<path d="M18.4838 24.0963C18.1946 24.0798 17.9068 24.1441 17.6567 24.281C17.4066 24.4179 17.2055 24.6213 17.0789 24.8654C16.9522 25.1094 16.9058 25.3832 16.9454 25.652C16.985 25.9209 17.1089 26.1726 17.3013 26.3754C17.4938 26.5782 17.7462 26.723 18.0265 26.7913C18.3068 26.8596 18.6025 26.8485 18.8761 26.7593C19.1497 26.6701 19.3888 26.5068 19.5633 26.2901C19.7377 26.0735 19.8396 25.8132 19.856 25.5423C19.8783 25.1802 19.7464 24.8246 19.4891 24.5535C19.2318 24.2824 18.8703 24.1179 18.4838 24.0963Z" fill="white"/>
<path d="M24.4704 25.5765C24.2508 25.6809 24.0692 25.8439 23.9486 26.0451C23.828 26.2462 23.7737 26.4763 23.7928 26.7063C23.8118 26.9363 23.9033 27.1558 24.0556 27.3371C24.2079 27.5183 24.4142 27.6532 24.6483 27.7246C24.8825 27.796 25.134 27.8007 25.371 27.7381C25.608 27.6755 25.8199 27.5485 25.9798 27.3731C26.1397 27.1977 26.2405 26.9817 26.2693 26.7526C26.2981 26.5235 26.2538 26.2916 26.1418 26.0861C26.0679 25.9497 25.966 25.8284 25.842 25.7289C25.718 25.6295 25.5742 25.5539 25.4189 25.5066C25.2637 25.4592 25.1 25.441 24.9372 25.453C24.7745 25.465 24.6158 25.507 24.4704 25.5765Z" fill="white"/>
<path d="M51.9346 10.5417C54.3445 10.5417 56.0323 11.7827 56.0323 14.0861H59.1889C59.1889 10.0449 56.0078 8.09814 51.887 8.09814C46.8251 8.09814 43.8848 10.673 43.8848 16.1144C43.8848 21.6909 46.8251 24.1294 51.887 24.1294C56.0568 24.1294 59.1889 22.2336 59.1889 18.1911H56.152C56.152 20.4487 54.4887 21.6909 51.936 21.6909C48.5849 21.6909 47.04 19.9518 47.04 16.3399V15.8889C47.0427 12.3471 48.608 10.5417 51.9346 10.5417Z" fill="white"/>
<path d="M67.5332 8.37329L61.0977 23.863H64.2801L65.6047 20.4983H73.1676L74.5276 23.863H77.8542L71.4146 8.37329H67.5332ZM66.5689 18.056L68.2567 13.8096C68.594 12.9751 69.1965 11.1685 69.3175 10.8526H69.4372C69.5582 11.1685 70.1607 12.9968 70.498 13.8096L72.1844 18.0547L66.5689 18.056Z" fill="white"/>
<path d="M95.0644 13.0694C95.0644 10.2028 93.3046 8.37329 89.6652 8.37329H80.9395V23.863H84.0253V17.8751H89.1579L92.2859 23.863H95.6601L92.1241 17.4279C94.0757 16.7055 95.0644 15.1703 95.0644 13.0694ZM89.4231 15.4404H84.0253V10.8347H89.4231C91.0864 10.8347 91.9541 11.6705 91.9541 13.0694C91.9541 14.5384 91.0143 15.4404 89.4231 15.4404Z" fill="white"/>
<path d="M105.888 8.37329H99.2812V23.863H105.885C110.874 23.863 113.909 21.4245 113.909 16.1182C113.909 10.8118 110.877 8.37329 105.888 8.37329ZM110.757 16.3437C110.732 19.7313 109.022 21.4016 105.888 21.4016H102.37V10.8347H105.888C109.016 10.8347 110.757 12.5063 110.757 15.8927V16.3437Z" fill="white"/>
<path d="M121.993 8.37329L115.555 23.863H118.736L120.062 20.4983H127.63L128.979 23.863H132.306L125.87 8.37329H121.993ZM121.029 18.056L122.714 13.8096C123.051 12.9751 123.654 11.1685 123.775 10.8526H123.897C124.017 11.1685 124.62 12.9968 124.958 13.8096L126.644 18.0547L121.029 18.056Z" fill="white"/>
<path d="M146.409 17.5859C146.409 17.8789 146.457 18.6688 146.457 18.8051L146.337 18.8497C146.265 18.7605 145.782 17.9693 145.521 17.6088L138.339 8.37329H135.395V23.863H138.359V14.583C138.359 14.2007 138.31 13.4542 138.31 13.3408L138.431 13.2732C138.503 13.3637 138.865 14.0186 139.247 14.5384L146.479 23.863H149.37V8.37329H146.406V17.5859H146.409Z" fill="white"/>
<path d="M161.661 8.10327C156.479 8.10327 153.346 10.6768 153.346 16.1182C153.346 21.5597 156.474 24.1332 161.661 24.1332C166.848 24.1332 170 21.5597 170 16.1182C170 10.6768 166.842 8.10327 161.661 8.10327ZM166.842 16.3667C166.842 19.9111 165.035 21.6947 161.661 21.6947C158.311 21.6947 156.504 19.9111 156.504 16.3667V15.8927C156.504 12.3471 158.336 10.5418 161.661 10.5418C165.012 10.5418 166.842 12.3471 166.842 15.8927V16.3667Z" fill="white"/>
</g>
<defs>
<clipPath id="clip0_1_4">
<rect width="170" height="32" fill="white" transform="translate(0 0.0500488)"/>
</clipPath>
</defs>
</svg>
