<svg width="69" height="69" viewBox="0 0 69 69" fill="none" xmlns="http://www.w3.org/2000/svg">
<rect x="0.777344" y="0.372559" width="67.915" height="67.915" rx="33.9575" fill="#363EFB"/>
<path d="M46.5938 20.7212H22.8722C21.7681 20.7212 20.873 21.6 20.873 22.6842V45.9763C20.873 47.0605 21.7681 47.9393 22.8722 47.9393H35.6805V37.4135H32.0801V33.2936H35.6805V30.2616C35.6805 26.7455 37.8666 24.8318 41.0609 24.8318C42.5908 24.8318 43.9056 24.9437 44.2888 24.9937V28.6687H42.0862C40.3482 28.6687 40.0117 29.4796 40.0117 30.6696V33.2936H44.167L43.6256 37.4135H40.0117V47.9393H46.5938C47.6979 47.9393 48.5929 47.0605 48.5929 45.9763V22.6842C48.5929 21.6 47.6979 20.7212 46.5938 20.7212V20.7212Z" fill="white"/>
</svg>
