<svg width="69" height="69" viewBox="0 0 69 69" fill="none" xmlns="http://www.w3.org/2000/svg">
<rect x="0.849609" y="0.372559" width="67.915" height="67.915" rx="33.9575" fill="#363EFB"/>
<path fill-rule="evenodd" clip-rule="evenodd" d="M40.7005 20.8094C38.0706 20.6889 31.5565 20.6947 28.9242 20.8094C26.6111 20.9158 24.5708 21.4643 22.9259 23.0794C20.4659 25.4948 20.4886 28.6612 20.5206 33.1226C20.5244 33.6469 20.5282 34.189 20.5282 34.7499C20.5282 35.2748 20.5254 35.7822 20.5226 36.2728C20.4966 40.8842 20.4789 44.0177 22.9259 46.4204C25.3904 48.8392 28.6508 48.8154 33.1432 48.7826H33.1435C33.6817 48.7787 34.2375 48.7746 34.8118 48.7746H34.8893C40.3373 48.7746 42.2295 48.7746 44.1678 48.0378C46.8156 47.0285 48.8143 44.7047 49.0096 40.5307C49.1335 37.9473 49.1263 31.5524 49.0096 28.9678C48.7738 24.0407 46.0807 21.0526 40.7005 20.8094ZM34.8109 27.3305C30.6348 27.3305 27.2539 30.6538 27.2539 34.7507C27.2539 38.8512 30.6385 42.1709 34.8109 42.1709C38.987 42.1709 42.3679 38.8476 42.3679 34.7507C42.3679 30.6502 38.9833 27.3305 34.8109 27.3305ZM34.8109 39.567C32.1001 39.567 29.9058 37.4113 29.9058 34.7507C29.9058 32.0901 32.1013 29.9344 34.8109 29.9344C37.5205 29.9344 39.716 32.0901 39.716 34.7507C39.7172 37.4113 37.5217 39.567 34.8109 39.567ZM45.2975 26.6129C45.2975 27.5705 44.5069 28.3468 43.5316 28.3468C42.5563 28.3468 41.7657 27.5705 41.7657 26.6129C41.7657 25.6552 42.5563 24.8789 43.5316 24.8789C44.5069 24.8789 45.2975 25.6552 45.2975 26.6129Z" fill="white"/>
</svg>
