<svg width="69" height="69" viewBox="0 0 69 69" fill="none" xmlns="http://www.w3.org/2000/svg">
<rect x="0.902344" y="0.372559" width="67.915" height="67.915" rx="33.9575" fill="#363EFB"/>
<path fill-rule="evenodd" clip-rule="evenodd" d="M24.3022 20.7212C22.4784 20.7212 21 22.1996 21 24.0234V44.6371C21 46.4608 22.4784 47.9393 24.3022 47.9393H45.4177C47.2415 47.9393 48.7199 46.4608 48.7199 44.6371V24.0234C48.7199 22.1996 47.2415 20.7212 45.4177 20.7212H24.3022ZM41.4008 29.1975L37.8005 40.632C37.6136 41.2256 36.7453 41.2712 36.4584 40.7189C35.6911 39.2415 34.5405 37.4364 33.234 36.4275C31.9641 35.4467 29.8042 34.6105 28.0065 34.049C27.3717 33.8507 27.3358 32.8991 27.9651 32.6838L40.5569 28.3743C41.0694 28.1989 41.5634 28.6809 41.4008 29.1975Z" fill="white"/>
</svg>
