<svg width="69" height="69" viewBox="0 0 69 69" fill="none" xmlns="http://www.w3.org/2000/svg">
<rect x="0.722656" y="0.372559" width="67.915" height="67.915" rx="33.9575" fill="#363EFB"/>
<path fill-rule="evenodd" clip-rule="evenodd" d="M44.6775 23.698C46.4346 23.8076 47.2975 24.0958 48.0927 25.6629C48.9209 27.228 49.3386 29.9237 49.3386 34.6717V34.6778V34.688C49.3386 39.4136 48.9209 42.1297 48.0946 43.6785C47.2994 45.2456 46.4364 45.5298 44.6793 45.6617C42.9223 45.7734 38.5085 45.8403 34.6847 45.8403C30.8536 45.8403 26.438 45.7734 24.6827 45.6597C22.9293 45.5277 22.0663 45.2436 21.2638 43.6765C20.4448 42.1276 20.0234 39.4116 20.0234 34.6859V34.6819V34.6758V34.6697C20.0234 29.9237 20.4448 27.228 21.2638 25.6629C22.0663 24.0938 22.9311 23.8076 24.6846 23.696C26.438 23.566 30.8536 23.5112 34.6847 23.5112C38.5085 23.5112 42.9223 23.566 44.6775 23.698ZM40.95 34.6493L31.1031 29.0672V40.2315L40.95 34.6493Z" fill="white"/>
</svg>
